<?xml version="1.0" encoding="utf-8"?>
<!-- Generator: Adobe Illustrator 26.1.0, SVG Export Plug-In . SVG Version: 6.00 Build 0)  -->
<svg version="1.1" id="Layer_1" xmlns="http://www.w3.org/2000/svg" xmlns:xlink="http://www.w3.org/1999/xlink" x="0px" y="0px"
	 viewBox="0 0 140 40" style="enable-background:new 0 0 140 40;" xml:space="preserve">
<style type="text/css">
	.st0{fill:#0099FF;}
	.st1{fill:#FFFFFF;}
</style>
<path class="st0" d="M3.1317,22.7191h3.8323c1.5778-0.0005,2.8572,1.2782,2.8577,2.856c0,0.0235-0.0003,0.047-0.0008,0.0705v3.902
	c0.0005,1.5894-1.2678,2.8887-2.8568,2.9265H3.1317c-1.6163,0-2.9265-1.3102-2.9265-2.9265c0,0,0,0,0,0v-3.902
	C0.2052,24.0293,1.5154,22.7191,3.1317,22.7191L3.1317,22.7191"/>
<path class="st0" d="M3.1317,11.222h3.8323c1.589,0.0378,2.8573,1.3371,2.8568,2.9265v3.902
	c0.0005,1.5894-1.2678,2.8887-2.8568,2.9265H3.1317c-1.6163,0-2.9265-1.3102-2.9265-2.9265l0,0v-3.902
	C0.2052,12.5323,1.5154,11.222,3.1317,11.222L3.1317,11.222"/>
<path class="st0" d="M14.35,22.7191h3.8323c1.6163,0,2.9265,1.3102,2.9265,2.9265c0,0,0,0,0,0v3.902
	c0,1.6163-1.3102,2.9265-2.9265,2.9265l0,0H14.35c-1.589-0.0378-2.8573-1.3371-2.8568-2.9265v-3.902
	c-0.0385-1.5773,1.209-2.8872,2.7863-2.9257C14.303,22.7194,14.3265,22.7191,14.35,22.7191"/>
<path class="st1" d="M35.3234,26.7605l2.7872,0.4181c-0.3133,0.8612-0.9008,1.5957-1.6723,2.0904
	c-0.8889,0.5138-1.8999,0.7786-2.9265,0.7665c-1.8581,0-3.2517-0.5574-4.1807-1.6723c-0.7232-0.9345-1.0933-2.0943-1.0452-3.2749
	c-0.0707-1.3922,0.4331-2.7524,1.3936-3.7627c0.9415-0.935,2.2275-1.4393,3.5536-1.3936c1.3844-0.0674,2.7304,0.466,3.693,1.4633
	c0.9755,0.9058,1.3936,2.3691,1.3239,4.3201h-7.0376c-0.0465,0.6771,0.2085,1.3402,0.6968,1.8117
	c0.4288,0.4151,1.006,0.641,1.6026,0.6271c0.3985,0.0004,0.7875-0.1211,1.1149-0.3484
	C34.9678,27.5436,35.2127,27.1762,35.3234,26.7605 M35.4628,24.1824c0.0516-0.6232-0.1785-1.2367-0.6271-1.6723
	c-0.3814-0.4005-0.9102-0.6271-1.4633-0.6271c-0.5771-0.0196-1.135,0.2086-1.5329,0.6271
	c-0.4414,0.4369-0.6484,1.0579-0.5574,1.6723H35.4628z"/>
<path class="st1" d="M38.459,20.2106h1.5329v-0.7665c-0.0378-0.6169,0.0573-1.2347,0.2787-1.8117
	c0.2396-0.425,0.6046-0.7657,1.0452-0.9755c0.6235-0.2347,1.2848-0.3528,1.951-0.3484c0.7987-0.0144,1.5956,0.0793,2.3691,0.2787
	l-0.3484,1.8117l-1.3239-0.1394c-0.3276-0.0372-0.6558,0.0638-0.9058,0.2787c-0.1765,0.2928-0.2501,0.6361-0.209,0.9755v0.6968
	h2.0904v1.951h-2.0904v7.6647h-2.8568v-7.6647H38.459V20.2106z"/>
<path class="st1" d="M44.3817,20.2106h1.5329v-0.7665c-0.0202-0.6223,0.0988-1.2412,0.3484-1.8117
	c0.1999-0.4547,0.5778-0.8074,1.0452-0.9755c0.6196-0.2484,1.2837-0.367,1.951-0.3484c0.7755-0.0107,1.5489,0.083,2.2994,0.2787
	l-0.3484,1.8117l-1.3239-0.1394c-0.3062-0.0349-0.6121,0.0671-0.8361,0.2787c-0.209,0.1394-0.2787,0.4878-0.2787,0.9755v0.6968
	h2.0904v1.951h-2.0904v7.6647h-2.8568v-7.6647h-1.5329V20.2106z"/>
<path class="st1" d="M51.5587,16.5177h2.8568v2.3691h-2.8568V16.5177z M51.5587,20.2106h2.8568v9.6157h-2.8568V20.2106z"/>
<path class="st1" d="M65.7035,22.9978l-2.7872,0.4878c-0.0845-0.4458-0.3331-0.8436-0.6968-1.1149
	c-0.3429-0.3057-0.7965-0.4569-1.2542-0.4181c-0.6344-0.0339-1.2497,0.2225-1.6723,0.6968c-0.4816,0.6113-0.7065,1.3859-0.6271,2.16
	c-0.0831,0.8613,0.1388,1.7244,0.6271,2.4388c0.4226,0.4743,1.0379,0.7307,1.6723,0.6968c0.4768,0.0214,0.9458-0.1267,1.3239-0.4181
	c0.404-0.3658,0.6739-0.8565,0.7665-1.3936l2.7872,0.4181c-0.2696,1.0151-0.8553,1.9181-1.6723,2.5781
	c-0.9647,0.6488-2.114,0.9667-3.2749,0.9058c-1.3822,0.0894-2.741-0.3887-3.7627-1.3239c-0.9496-0.9889-1.4532-2.3233-1.3936-3.693
	c-0.0855-1.3737,0.4219-2.7182,1.3936-3.693c1.0188-0.9467,2.373-1.4482,3.7627-1.3936c1.0967-0.0473,2.1843,0.2186,3.1356,0.7665
	C64.8109,21.2756,65.3946,22.0782,65.7035,22.9978"/>
<path class="st1" d="M66.8881,16.5177h2.8568v2.3691h-2.8568V16.5177z M66.8881,20.2106h2.8568v9.6157h-2.8568V20.2106z"/>
<path class="st1" d="M77.8973,26.7605l2.7872,0.4181c-0.3133,0.8612-0.9008,1.5957-1.6723,2.0904
	c-0.8889,0.5138-1.8999,0.7786-2.9265,0.7665c-1.8813,0-3.2749-0.5574-4.1111-1.6723c-0.7773-0.9086-1.1763-2.0808-1.1149-3.2749
	c-0.0707-1.3922,0.4331-2.7524,1.3936-3.7627c0.9504-0.9212,2.2304-1.4231,3.5536-1.3936c1.4024-0.0522,2.764,0.4773,3.7627,1.4633
	c0.9058,0.9058,1.3239,2.3691,1.2542,4.3201h-7.0376c-0.0203,0.6729,0.2308,1.3257,0.6968,1.8117
	c0.4288,0.4151,1.006,0.641,1.6026,0.6271c0.3985,0.0004,0.7875-0.1211,1.1149-0.3484
	C77.5417,27.5436,77.7867,27.1762,77.8973,26.7605 M78.0367,24.1824c0.0516-0.6232-0.1785-1.2367-0.6271-1.6723
	c-0.3814-0.4005-0.9102-0.6271-1.4633-0.6271c-0.5771-0.0196-1.135,0.2086-1.5329,0.6271c-0.4076,0.4572-0.6092,1.062-0.5574,1.6723
	H78.0367z"/>
<path class="st1" d="M91.9725,29.8264h-2.8568v-4.9472c0.0161-0.6764-0.0305-1.3529-0.1394-2.0207
	c-0.1493-0.2798-0.3645-0.5189-0.6271-0.6968c-0.2962-0.1744-0.6319-0.2703-0.9755-0.2787
	c-0.4738-0.0004-0.9362,0.1456-1.3239,0.4181c-0.3433,0.215-0.6112,0.5316-0.7665,0.9058c-0.1719,0.7301-0.2423,1.4804-0.209,2.2297
	v4.3898h-2.8568v-9.6157h2.6478v1.3936c0.8334-1.0747,2.1242-1.6943,3.484-1.6723c0.5971,0.0085,1.1875,0.1266,1.742,0.3484
	c0.4514,0.1551,0.8581,0.4182,1.1845,0.7665c0.232,0.3116,0.3979,0.6673,0.4878,1.0452c0.1601,0.5662,0.2306,1.154,0.209,1.742
	V29.8264z"/>
<path class="st1" d="M98.8011,20.2106v2.0207H96.85v3.8323c0,0.8361,0.0697,1.2542,0.0697,1.3936
	c0.0522,0.1435,0.1501,0.2659,0.2787,0.3484l0.4878,0.1394l1.1149-0.2787l0.209,1.951c-0.7062,0.2927-1.4655,0.435-2.2297,0.4181
	c-0.4502,0.0101-0.8987-0.0607-1.3239-0.209c-0.4181-0.209-0.7665-0.3484-0.9058-0.6271c-0.221-0.2838-0.365-0.6198-0.4181-0.9755
	c-0.0733-0.6009-0.0966-1.2069-0.0697-1.8117v-4.1807H92.739v-2.0207h1.3239v-1.951l2.7872-1.4633v3.4143H98.8011z"/>
<path class="st1" d="M104.6541,16.5177h2.8568v2.3691h-2.8568V16.5177z M104.6541,20.2106h2.8568v9.6157h-2.8568V20.2106z"/>
<path class="st1" d="M109.1832,29.8264V16.5177h4.7382c1.1885-0.0445,2.3785,0.0255,3.5536,0.209
	c0.8261,0.193,1.5628,0.6596,2.0904,1.3239c0.5834,0.7288,0.8808,1.6456,0.8361,2.5781c0.0304,0.706-0.1386,1.4063-0.4877,2.0207
	c-0.2789,0.5328-0.686,0.9877-1.1845,1.3239c-0.4798,0.3278-1.0278,0.5423-1.6026,0.6271c-1.0136,0.1621-2.0397,0.232-3.0659,0.209
	h-1.951v5.0169L109.1832,29.8264z M112.1098,18.7474v3.7627h1.6723c0.7725,0.0407,1.5469-0.0297,2.2994-0.209
	c0.3721-0.125,0.7073-0.3405,0.9755-0.6271c0.2261-0.3015,0.3484-0.6683,0.3484-1.0452c-0.0129-0.4411-0.1863-0.8623-0.4878-1.1845
	c-0.3346-0.2934-0.7452-0.4866-1.1845-0.5574l-2.1601-0.1394L112.1098,18.7474z"/>
<path class="st1" d="M122.4919,12.4763v0.4878h-1.1149v3.1356h-0.5574V12.964h-1.1149v-0.4878H122.4919z M125.9759,16.0996
	l-0.1394-2.1601V12.964h-0.0697c-0.0697,0.3484-0.209,0.6968-0.2787,1.0452l-0.7665,2.0904h-0.4181l-0.6968-2.1601
	c-0.1342-0.3119-0.2279-0.6398-0.2787-0.9755h-0.0697v0.9755l-0.1394,2.1601h-0.4878l0.2787-3.6233h0.6968l0.6968,2.0207
	c0.0697,0.209,0.1394,0.5574,0.2787,0.9058l0,0c0.0508-0.3357,0.1445-0.6636,0.2787-0.9755l0.6968-1.951h0.6968l0.2787,3.6233
	H125.9759z"/>
</svg>
